<?xml version="1.0" encoding="UTF-8"?>
<svg xmlns="http://www.w3.org/2000/svg" xmlns:xlink="http://www.w3.org/1999/xlink" width="300.48pt" height="311.04pt" viewBox="0 0 300.48 311.04" version="1.2">
<defs>
<clipPath id="clip1">
  <path d="M 0.203125 0 L 299.757812 0 L 299.757812 310.082031 L 0.203125 310.082031 Z M 0.203125 0 "/>
</clipPath>
<clipPath id="clip2">
  <path d="M 68 12 L 230 12 L 230 196 L 68 196 Z M 68 12 "/>
</clipPath>
<clipPath id="clip3">
  <path d="M 73.246094 195.21875 C 73.128906 195.03125 79.394531 179.933594 84.011719 169.257812 C 84.589844 167.933594 84.710938 167.40625 84.476562 167.222656 C 84.304688 167.085938 83.097656 166.703125 81.792969 166.378906 C 74.210938 164.492188 70.171875 161.03125 68.652344 155.113281 C 67.933594 152.308594 68.433594 145.929688 69.335938 146.488281 C 69.457031 146.5625 69.625 147.070312 69.714844 147.628906 C 69.992188 149.296875 71.390625 151.898438 72.753906 153.261719 C 76.515625 157.015625 82.550781 158.902344 90.835938 158.902344 C 95.425781 158.898438 99.457031 158.417969 105.089844 157.183594 C 113.34375 155.378906 116.503906 154.472656 124.460938 151.628906 C 140.335938 145.953125 155.625 138.113281 171.601562 127.445312 C 182.777344 119.984375 191.488281 112.964844 199.984375 104.574219 C 211.652344 93.046875 217.773438 83.753906 219.421875 75.066406 C 220.140625 71.285156 219.804688 68.503906 218.285156 65.691406 C 217.378906 64.011719 215.023438 61.582031 213.359375 60.617188 C 211.078125 59.285156 212.316406 59.148438 216.757812 60.242188 C 220.898438 61.257812 224.011719 63.347656 226.011719 66.433594 C 228.636719 70.496094 228.777344 75.246094 226.472656 82.175781 C 222 95.613281 204.5 114.496094 181.675781 130.5 C 172.886719 136.664062 166.796875 140.566406 160.601562 144.023438 C 151.316406 149.191406 141.824219 153.765625 133.921875 156.886719 C 131.765625 157.730469 129.828125 158.664062 129.546875 158.992188 C 129.269531 159.3125 125.601562 167.617188 121.402344 177.449219 L 113.761719 195.320312 L 93.574219 195.390625 C 81.976562 195.429688 73.332031 195.355469 73.246094 195.21875 Z M 188.957031 195.121094 C 188.820312 194.941406 185.035156 186.207031 180.550781 175.714844 C 169.003906 148.707031 167.480469 145.070312 167.578125 144.773438 C 167.707031 144.398438 172.84375 141.304688 172.976562 141.519531 C 173.195312 141.878906 178.601562 154.378906 180.738281 159.441406 C 186.570312 173.3125 193.007812 188.167969 193.363281 188.589844 C 193.730469 189.019531 194.632812 189.050781 205.027344 189.050781 C 214.332031 189.050781 216.347656 188.988281 216.601562 188.683594 C 216.9375 188.28125 215.914062 187.285156 205.402344 177.804688 C 202.535156 175.21875 199.804688 172.660156 199.332031 172.128906 C 198.394531 171.058594 198.433594 170.746094 199.648438 169.609375 L 200.328125 168.972656 L 201.605469 170.050781 C 202.3125 170.644531 206.066406 174.066406 209.957031 177.65625 C 214.980469 182.300781 217.117188 184.113281 217.347656 183.933594 C 217.59375 183.734375 217.578125 183.480469 217.28125 182.828125 C 215.539062 178.996094 197.664062 136.628906 194.640625 129.160156 L 193.664062 126.753906 L 194.671875 125.875 C 196.804688 124 198.515625 122.8125 198.742188 123.046875 C 198.941406 123.257812 204.742188 136.789062 214.101562 158.90625 C 215.753906 162.796875 219.878906 172.496094 223.273438 180.460938 C 226.664062 188.433594 229.375 195.066406 229.289062 195.203125 C 229.03125 195.617188 189.273438 195.539062 188.957031 195.121094 Z M 109.320312 188.71875 C 109.527344 188.46875 116.84375 171.675781 119.945312 164.335938 C 120.226562 163.671875 120.230469 163.4375 119.972656 163.230469 C 119.65625 162.96875 118.464844 163.832031 102.171875 176.183594 C 86.46875 188.085938 86.164062 188.332031 86.464844 188.699219 C 86.886719 189.203125 108.898438 189.226562 109.320312 188.71875 Z M 107.699219 167.871094 C 111.832031 164.765625 112 164.273438 108.640625 165.078125 C 105.328125 165.878906 100.703125 166.628906 97.246094 166.933594 C 92.8125 167.320312 92.429688 167.386719 91.953125 167.917969 C 91.546875 168.367188 90.808594 170.03125 87.765625 177.316406 C 87.003906 179.148438 86.070312 181.335938 85.703125 182.183594 C 85.15625 183.421875 85.089844 183.785156 85.355469 184.105469 C 85.636719 184.445312 87.058594 183.46875 94.929688 177.511719 C 100.011719 173.664062 105.761719 169.332031 107.699219 167.871094 Z M 90.5625 154.585938 C 90.476562 154.371094 92.203125 149.996094 94.40625 144.875 C 100.191406 131.382812 105.90625 117.8125 105.90625 117.566406 C 105.90625 117.449219 106.085938 117.203125 106.296875 117.023438 C 106.625 116.753906 106.785156 116.859375 107.246094 117.632812 C 107.789062 118.558594 109.273438 119.71875 110.351562 120.0625 C 110.667969 120.160156 111.066406 120.410156 111.230469 120.609375 C 111.617188 121.074219 112.074219 119.953125 99.59375 149.304688 C 98.503906 151.871094 97.453125 154.121094 97.269531 154.3125 C 97.0625 154.523438 95.792969 154.710938 93.824219 154.816406 C 91.207031 154.957031 90.691406 154.921875 90.5625 154.585938 Z M 127.953125 145.894531 C 127.882812 145.78125 128.519531 144.070312 129.363281 142.089844 C 130.210938 140.117188 133.609375 132.132812 136.921875 124.355469 C 146.953125 100.808594 145.894531 103.070312 146.667969 103.617188 C 149.40625 105.550781 152.808594 105.730469 155.324219 104.066406 C 155.871094 103.710938 156.441406 103.414062 156.59375 103.414062 C 156.929688 103.414062 157.226562 104.078125 162.230469 116.046875 C 164.433594 121.308594 166.191406 125.808594 166.144531 126.046875 C 166.097656 126.289062 164.980469 127.164062 163.664062 127.996094 C 161.828125 129.160156 161.191406 129.441406 160.945312 129.203125 C 160.773438 129.03125 158.683594 124.328125 156.308594 118.753906 C 153.933594 113.175781 151.839844 108.453125 151.652344 108.25 C 151.371094 107.945312 151.25 107.992188 150.902344 108.515625 C 150.554688 109.058594 142.667969 127.375 137.789062 138.980469 C 136.023438 143.175781 136.492188 142.746094 131.332031 144.871094 C 128.0625 146.210938 128.136719 146.191406 127.953125 145.894531 Z M 186.515625 111.066406 C 185.78125 110.175781 176.710938 88.285156 176.042969 85.777344 C 175.636719 84.238281 175.820312 83.746094 177.011719 83.253906 C 177.527344 83.035156 178.433594 82.421875 179.027344 81.886719 C 179.957031 81.042969 180.152344 80.96875 180.484375 81.292969 C 180.925781 81.738281 184.128906 89.109375 188.527344 99.78125 C 191.472656 106.933594 191.570312 107.242188 191.101562 107.667969 C 188.054688 110.457031 186.789062 111.394531 186.515625 111.066406 Z M 117.792969 108.230469 C 116.980469 107.332031 115 106.574219 113.289062 106.515625 C 112.40625 106.480469 111.636719 106.332031 111.585938 106.179688 C 111.535156 106.027344 112.207031 104.230469 113.078125 102.1875 C 116.476562 94.234375 129.152344 64.3125 133.523438 53.921875 C 142.039062 33.675781 148.523438 18.191406 149.671875 15.371094 C 150.972656 12.175781 151.40625 11.527344 151.699219 12.324219 C 152.003906 13.171875 157.785156 27.035156 160.859375 34.3125 C 166.234375 47.023438 175.273438 68.886719 175.359375 69.394531 C 175.386719 69.539062 174.804688 69.730469 174.070312 69.820312 C 172.640625 69.988281 172.160156 70.136719 170.804688 70.816406 C 170.046875 71.195312 169.894531 71.203125 169.582031 70.859375 C 168.933594 70.160156 164.234375 59.199219 156.429688 40.207031 C 155.195312 37.214844 154.058594 34.597656 153.890625 34.402344 C 153.664062 34.132812 153.5 34.117188 153.226562 34.34375 C 152.925781 34.589844 152.863281 37.105469 152.863281 48.472656 L 152.863281 62.300781 L 153.730469 62.945312 C 154.207031 63.300781 157.65625 65.417969 161.398438 67.660156 C 165.140625 69.898438 168.355469 71.878906 168.542969 72.054688 C 168.820312 72.308594 168.75 72.609375 168.179688 73.628906 C 167.792969 74.324219 167.335938 74.855469 167.171875 74.8125 C 167.007812 74.769531 163.890625 72.953125 160.253906 70.777344 C 154.875 67.558594 153.5625 66.878906 153.25 67.140625 C 152.929688 67.402344 152.859375 69.363281 152.800781 79.230469 L 152.730469 91.007812 L 149.792969 91.007812 L 149.722656 80.492188 C 149.65625 70.324219 149.546875 68.96875 148.84375 69.410156 C 148.722656 69.484375 145.695312 73.355469 142.121094 78.007812 C 132.996094 89.890625 122.03125 104.230469 120.199219 106.679688 C 119.34375 107.816406 118.5625 108.75 118.453125 108.75 C 118.351562 108.75 118.050781 108.515625 117.792969 108.230469 Z M 124.867188 95.207031 C 125.933594 93.78125 131.953125 85.925781 138.234375 77.753906 L 149.660156 62.902344 L 149.660156 48.90625 C 149.660156 37.398438 149.59375 34.859375 149.292969 34.609375 C 149.019531 34.386719 148.867188 34.394531 148.671875 34.644531 C 148.53125 34.828125 146.640625 39.246094 144.460938 44.449219 C 142.292969 49.660156 138.320312 59.085938 135.640625 65.394531 C 132.960938 71.707031 129.207031 80.589844 127.296875 85.136719 C 125.390625 89.6875 123.46875 94.25 123.027344 95.273438 C 122.453125 96.613281 122.304688 97.234375 122.503906 97.476562 C 122.652344 97.660156 122.8125 97.808594 122.847656 97.808594 C 122.882812 97.808594 123.792969 96.636719 124.867188 95.207031 Z M 195.984375 82.050781 C 195.921875 81.839844 195.660156 80.535156 195.40625 79.144531 C 194.617188 74.84375 193.195312 71.28125 191.355469 69.046875 C 189.980469 67.367188 187.941406 66.132812 184.742188 65.027344 C 183.1875 64.496094 181.894531 63.960938 181.867188 63.839844 C 181.832031 63.714844 182.832031 63.292969 184.085938 62.886719 C 189.03125 61.292969 191.597656 59.214844 193.40625 55.320312 C 194.398438 53.1875 195.367188 49.832031 195.699219 47.386719 C 195.957031 45.484375 196.054688 45.296875 196.5 45.902344 C 196.710938 46.1875 196.882812 46.730469 196.886719 47.105469 C 196.890625 48.714844 198.265625 53.71875 199.273438 55.804688 C 200.902344 59.167969 203.589844 61.238281 208.4375 62.871094 C 209.582031 63.257812 210.515625 63.664062 210.511719 63.78125 C 210.511719 63.894531 209.453125 64.34375 208.164062 64.773438 C 204.367188 66.050781 201.601562 67.988281 200.152344 70.386719 C 198.945312 72.378906 197.84375 75.550781 197.15625 79 C 196.578125 81.878906 196.214844 82.8125 195.984375 82.050781 Z M 207.671875 77.492188 C 204.503906 75.664062 204.050781 74.957031 205.28125 73.800781 C 205.851562 73.269531 206.046875 73.222656 206.605469 73.480469 C 206.96875 73.648438 207.554688 74.234375 207.898438 74.792969 C 209.390625 77.179688 209.964844 78.296875 209.757812 78.429688 C 209.632812 78.503906 208.699219 78.085938 207.671875 77.492188 Z M 185.304688 53.460938 C 184.375 52.625 182.164062 48.78125 182.492188 48.574219 C 182.773438 48.402344 186.496094 50.609375 187.328125 51.441406 C 187.949219 52.058594 187.949219 53.050781 187.324219 53.617188 C 186.660156 54.214844 186.101562 54.171875 185.304688 53.460938 Z M 205.152344 53.253906 C 204.117188 52.21875 204.46875 51.6875 207.421875 49.824219 C 208.621094 49.070312 209.65625 48.578125 209.785156 48.710938 C 210.078125 49 208.828125 51.320312 207.621094 52.726562 C 206.609375 53.910156 205.949219 54.050781 205.152344 53.253906 Z M 205.152344 53.253906 "/>
</clipPath>
<clipPath id="clip4">
  <path d="M 73.246094 195.21875 C 73.128906 195.03125 79.394531 179.933594 84.011719 169.257812 C 84.589844 167.933594 84.710938 167.40625 84.476562 167.222656 C 84.304688 167.085938 83.097656 166.703125 81.792969 166.378906 C 74.210938 164.492188 70.171875 161.03125 68.652344 155.113281 C 67.933594 152.308594 68.433594 145.929688 69.335938 146.488281 C 69.457031 146.5625 69.625 147.070312 69.714844 147.628906 C 69.992188 149.296875 71.390625 151.898438 72.753906 153.261719 C 76.515625 157.015625 82.550781 158.902344 90.835938 158.902344 C 95.425781 158.898438 99.457031 158.417969 105.089844 157.183594 C 113.34375 155.378906 116.503906 154.472656 124.460938 151.628906 C 140.335938 145.953125 155.625 138.113281 171.601562 127.445312 C 182.777344 119.984375 191.488281 112.964844 199.984375 104.574219 C 211.652344 93.046875 217.773438 83.753906 219.421875 75.066406 C 220.140625 71.285156 219.804688 68.503906 218.285156 65.691406 C 217.378906 64.011719 215.023438 61.582031 213.359375 60.617188 C 211.078125 59.285156 212.316406 59.148438 216.757812 60.242188 C 220.898438 61.257812 224.011719 63.347656 226.011719 66.433594 C 228.636719 70.496094 228.777344 75.246094 226.472656 82.175781 C 222 95.613281 204.5 114.496094 181.675781 130.5 C 172.886719 136.664062 166.796875 140.566406 160.601562 144.023438 C 151.316406 149.191406 141.824219 153.765625 133.921875 156.886719 C 131.765625 157.730469 129.828125 158.664062 129.546875 158.992188 C 129.269531 159.3125 125.601562 167.617188 121.402344 177.449219 L 113.761719 195.320312 L 93.574219 195.390625 C 81.976562 195.429688 73.332031 195.355469 73.246094 195.21875 Z M 188.957031 195.121094 C 188.820312 194.941406 185.035156 186.207031 180.550781 175.714844 C 169.003906 148.707031 167.480469 145.070312 167.578125 144.773438 C 167.707031 144.398438 172.84375 141.304688 172.976562 141.519531 C 173.195312 141.878906 178.601562 154.378906 180.738281 159.441406 C 186.570312 173.3125 193.007812 188.167969 193.363281 188.589844 C 193.730469 189.019531 194.632812 189.050781 205.027344 189.050781 C 214.332031 189.050781 216.347656 188.988281 216.601562 188.683594 C 216.9375 188.28125 215.914062 187.285156 205.402344 177.804688 C 202.535156 175.21875 199.804688 172.660156 199.332031 172.128906 C 198.394531 171.058594 198.433594 170.746094 199.648438 169.609375 L 200.328125 168.972656 L 201.605469 170.050781 C 202.3125 170.644531 206.066406 174.066406 209.957031 177.65625 C 214.980469 182.300781 217.117188 184.113281 217.347656 183.933594 C 217.59375 183.734375 217.578125 183.480469 217.28125 182.828125 C 215.539062 178.996094 197.664062 136.628906 194.640625 129.160156 L 193.664062 126.753906 L 194.671875 125.875 C 196.804688 124 198.515625 122.8125 198.742188 123.046875 C 198.941406 123.257812 204.742188 136.789062 214.101562 158.90625 C 215.753906 162.796875 219.878906 172.496094 223.273438 180.460938 C 226.664062 188.433594 229.375 195.066406 229.289062 195.203125 C 229.03125 195.617188 189.273438 195.539062 188.957031 195.121094 Z M 109.320312 188.71875 C 109.527344 188.46875 116.84375 171.675781 119.945312 164.335938 C 120.226562 163.671875 120.230469 163.4375 119.972656 163.230469 C 119.65625 162.96875 118.464844 163.832031 102.171875 176.183594 C 86.46875 188.085938 86.164062 188.332031 86.464844 188.699219 C 86.886719 189.203125 108.898438 189.226562 109.320312 188.71875 Z M 107.699219 167.871094 C 111.832031 164.765625 112 164.273438 108.640625 165.078125 C 105.328125 165.878906 100.703125 166.628906 97.246094 166.933594 C 92.8125 167.320312 92.429688 167.386719 91.953125 167.917969 C 91.546875 168.367188 90.808594 170.03125 87.765625 177.316406 C 87.003906 179.148438 86.070312 181.335938 85.703125 182.183594 C 85.15625 183.421875 85.089844 183.785156 85.355469 184.105469 C 85.636719 184.445312 87.058594 183.46875 94.929688 177.511719 C 100.011719 173.664062 105.761719 169.332031 107.699219 167.871094 Z M 90.5625 154.585938 C 90.476562 154.371094 92.203125 149.996094 94.40625 144.875 C 100.191406 131.382812 105.90625 117.8125 105.90625 117.566406 C 105.90625 117.449219 106.085938 117.203125 106.296875 117.023438 C 106.625 116.753906 106.785156 116.859375 107.246094 117.632812 C 107.789062 118.558594 109.273438 119.71875 110.351562 120.0625 C 110.667969 120.160156 111.066406 120.410156 111.230469 120.609375 C 111.617188 121.074219 112.074219 119.953125 99.59375 149.304688 C 98.503906 151.871094 97.453125 154.121094 97.269531 154.3125 C 97.0625 154.523438 95.792969 154.710938 93.824219 154.816406 C 91.207031 154.957031 90.691406 154.921875 90.5625 154.585938 Z M 127.953125 145.894531 C 127.882812 145.78125 128.519531 144.070312 129.363281 142.089844 C 130.210938 140.117188 133.609375 132.132812 136.921875 124.355469 C 146.953125 100.808594 145.894531 103.070312 146.667969 103.617188 C 149.40625 105.550781 152.808594 105.730469 155.324219 104.066406 C 155.871094 103.710938 156.441406 103.414062 156.59375 103.414062 C 156.929688 103.414062 157.226562 104.078125 162.230469 116.046875 C 164.433594 121.308594 166.191406 125.808594 166.144531 126.046875 C 166.097656 126.289062 164.980469 127.164062 163.664062 127.996094 C 161.828125 129.160156 161.191406 129.441406 160.945312 129.203125 C 160.773438 129.03125 158.683594 124.328125 156.308594 118.753906 C 153.933594 113.175781 151.839844 108.453125 151.652344 108.25 C 151.371094 107.945312 151.25 107.992188 150.902344 108.515625 C 150.554688 109.058594 142.667969 127.375 137.789062 138.980469 C 136.023438 143.175781 136.492188 142.746094 131.332031 144.871094 C 128.0625 146.210938 128.136719 146.191406 127.953125 145.894531 Z M 186.515625 111.066406 C 185.78125 110.175781 176.710938 88.285156 176.042969 85.777344 C 175.636719 84.238281 175.820312 83.746094 177.011719 83.253906 C 177.527344 83.035156 178.433594 82.421875 179.027344 81.886719 C 179.957031 81.042969 180.152344 80.96875 180.484375 81.292969 C 180.925781 81.738281 184.128906 89.109375 188.527344 99.78125 C 191.472656 106.933594 191.570312 107.242188 191.101562 107.667969 C 188.054688 110.457031 186.789062 111.394531 186.515625 111.066406 Z M 117.792969 108.230469 C 116.980469 107.332031 115 106.574219 113.289062 106.515625 C 112.40625 106.480469 111.636719 106.332031 111.585938 106.179688 C 111.535156 106.027344 112.207031 104.230469 113.078125 102.1875 C 116.476562 94.234375 129.152344 64.3125 133.523438 53.921875 C 142.039062 33.675781 148.523438 18.191406 149.671875 15.371094 C 150.972656 12.175781 151.40625 11.527344 151.699219 12.324219 C 152.003906 13.171875 157.785156 27.035156 160.859375 34.3125 C 166.234375 47.023438 175.273438 68.886719 175.359375 69.394531 C 175.386719 69.539062 174.804688 69.730469 174.070312 69.820312 C 172.640625 69.988281 172.160156 70.136719 170.804688 70.816406 C 170.046875 71.195312 169.894531 71.203125 169.582031 70.859375 C 168.933594 70.160156 164.234375 59.199219 156.429688 40.207031 C 155.195312 37.214844 154.058594 34.597656 153.890625 34.402344 C 153.664062 34.132812 153.5 34.117188 153.226562 34.34375 C 152.925781 34.589844 152.863281 37.105469 152.863281 48.472656 L 152.863281 62.300781 L 153.730469 62.945312 C 154.207031 63.300781 157.65625 65.417969 161.398438 67.660156 C 165.140625 69.898438 168.355469 71.878906 168.542969 72.054688 C 168.820312 72.308594 168.75 72.609375 168.179688 73.628906 C 167.792969 74.324219 167.335938 74.855469 167.171875 74.8125 C 167.007812 74.769531 163.890625 72.953125 160.253906 70.777344 C 154.875 67.558594 153.5625 66.878906 153.25 67.140625 C 152.929688 67.402344 152.859375 69.363281 152.800781 79.230469 L 152.730469 91.007812 L 149.792969 91.007812 L 149.722656 80.492188 C 149.65625 70.324219 149.546875 68.96875 148.84375 69.410156 C 148.722656 69.484375 145.695312 73.355469 142.121094 78.007812 C 132.996094 89.890625 122.03125 104.230469 120.199219 106.679688 C 119.34375 107.816406 118.5625 108.75 118.453125 108.75 C 118.351562 108.75 118.050781 108.515625 117.792969 108.230469 Z M 124.867188 95.207031 C 125.933594 93.78125 131.953125 85.925781 138.234375 77.753906 L 149.660156 62.902344 L 149.660156 48.90625 C 149.660156 37.398438 149.59375 34.859375 149.292969 34.609375 C 149.019531 34.386719 148.867188 34.394531 148.671875 34.644531 C 148.53125 34.828125 146.640625 39.246094 144.460938 44.449219 C 142.292969 49.660156 138.320312 59.085938 135.640625 65.394531 C 132.960938 71.707031 129.207031 80.589844 127.296875 85.136719 C 125.390625 89.6875 123.46875 94.25 123.027344 95.273438 C 122.453125 96.613281 122.304688 97.234375 122.503906 97.476562 C 122.652344 97.660156 122.8125 97.808594 122.847656 97.808594 C 122.882812 97.808594 123.792969 96.636719 124.867188 95.207031 Z M 195.984375 82.050781 C 195.921875 81.839844 195.660156 80.535156 195.40625 79.144531 C 194.617188 74.84375 193.195312 71.28125 191.355469 69.046875 C 189.980469 67.367188 187.941406 66.132812 184.742188 65.027344 C 183.1875 64.496094 181.894531 63.960938 181.867188 63.839844 C 181.832031 63.714844 182.832031 63.292969 184.085938 62.886719 C 189.03125 61.292969 191.597656 59.214844 193.40625 55.320312 C 194.398438 53.1875 195.367188 49.832031 195.699219 47.386719 C 195.957031 45.484375 196.054688 45.296875 196.5 45.902344 C 196.710938 46.1875 196.882812 46.730469 196.886719 47.105469 C 196.890625 48.714844 198.265625 53.71875 199.273438 55.804688 C 200.902344 59.167969 203.589844 61.238281 208.4375 62.871094 C 209.582031 63.257812 210.515625 63.664062 210.511719 63.78125 C 210.511719 63.894531 209.453125 64.34375 208.164062 64.773438 C 204.367188 66.050781 201.601562 67.988281 200.152344 70.386719 C 198.945312 72.378906 197.84375 75.550781 197.15625 79 C 196.578125 81.878906 196.214844 82.8125 195.984375 82.050781 Z M 207.671875 77.492188 C 204.503906 75.664062 204.050781 74.957031 205.28125 73.800781 C 205.851562 73.269531 206.046875 73.222656 206.605469 73.480469 C 206.96875 73.648438 207.554688 74.234375 207.898438 74.792969 C 209.390625 77.179688 209.964844 78.296875 209.757812 78.429688 C 209.632812 78.503906 208.699219 78.085938 207.671875 77.492188 Z M 185.304688 53.460938 C 184.375 52.625 182.164062 48.78125 182.492188 48.574219 C 182.773438 48.402344 186.496094 50.609375 187.328125 51.441406 C 187.949219 52.058594 187.949219 53.050781 187.324219 53.617188 C 186.660156 54.214844 186.101562 54.171875 185.304688 53.460938 Z M 205.152344 53.253906 C 204.117188 52.21875 204.46875 51.6875 207.421875 49.824219 C 208.621094 49.070312 209.65625 48.578125 209.785156 48.710938 C 210.078125 49 208.828125 51.320312 207.621094 52.726562 C 206.609375 53.910156 205.949219 54.050781 205.152344 53.253906 Z M 205.152344 53.253906 "/>
</clipPath>
<linearGradient id="linear0" gradientUnits="userSpaceOnUse" x1="1698.843922" y1="219.881954" x2="1094.849514" y2="910.892505" gradientTransform="matrix(0.266792,0,0,0.266792,-224.380763,-47.591114)">
<stop offset="0" style="stop-color:#FFFFFF;stop-opacity:1;"/>
<stop offset="0.03125" style="stop-color:#FFFFFF;stop-opacity:1;"/>
<stop offset="0.046875" style="stop-color:#FFFFFF;stop-opacity:1;"/>
<stop offset="0.0625" style="stop-color:#FFFFFF;stop-opacity:1;"/>
<stop offset="0.078125" style="stop-color:#FFFFFF;stop-opacity:1;"/>
<stop offset="0.09375" style="stop-color:#FFFFFF;stop-opacity:1;"/>
<stop offset="0.109375" style="stop-color:#FFFFFF;stop-opacity:1;"/>
<stop offset="0.125" style="stop-color:#FFFFFF;stop-opacity:1;"/>
<stop offset="0.140625" style="stop-color:#FFFFFF;stop-opacity:1;"/>
<stop offset="0.15625" style="stop-color:#FFFFFF;stop-opacity:1;"/>
<stop offset="0.171875" style="stop-color:#FFFFFF;stop-opacity:1;"/>
<stop offset="0.1875" style="stop-color:#FFFFFF;stop-opacity:1;"/>
<stop offset="0.203125" style="stop-color:#FFFFFF;stop-opacity:1;"/>
<stop offset="0.21875" style="stop-color:#FFFFFF;stop-opacity:1;"/>
<stop offset="0.234375" style="stop-color:#FFFFFF;stop-opacity:1;"/>
<stop offset="0.25" style="stop-color:#FFFFFF;stop-opacity:1;"/>
<stop offset="0.265625" style="stop-color:#FFFFFF;stop-opacity:1;"/>
<stop offset="0.28125" style="stop-color:#FFFFFF;stop-opacity:1;"/>
<stop offset="0.296875" style="stop-color:#FFFFFF;stop-opacity:1;"/>
<stop offset="0.3125" style="stop-color:#FFFFFF;stop-opacity:1;"/>
<stop offset="0.328125" style="stop-color:#FFFFFF;stop-opacity:1;"/>
<stop offset="0.34375" style="stop-color:#FFFFFF;stop-opacity:1;"/>
<stop offset="0.359375" style="stop-color:#FFFFFF;stop-opacity:1;"/>
<stop offset="0.375" style="stop-color:#FFFFFF;stop-opacity:1;"/>
<stop offset="0.390625" style="stop-color:#FFFFFF;stop-opacity:1;"/>
<stop offset="0.40625" style="stop-color:#FFFFFF;stop-opacity:1;"/>
<stop offset="0.421875" style="stop-color:#FFFFFF;stop-opacity:1;"/>
<stop offset="0.43392" style="stop-color:#FFFFFF;stop-opacity:1;"/>
<stop offset="0.4375" style="stop-color:#FFFFFF;stop-opacity:1;"/>
<stop offset="0.453125" style="stop-color:#FFFFFF;stop-opacity:1;"/>
<stop offset="0.46875" style="stop-color:#FFFFFF;stop-opacity:1;"/>
<stop offset="0.484375" style="stop-color:#FFFFFF;stop-opacity:1;"/>
<stop offset="0.5" style="stop-color:#FFFFFF;stop-opacity:1;"/>
<stop offset="0.515625" style="stop-color:#FFFFFF;stop-opacity:1;"/>
<stop offset="0.53125" style="stop-color:#FFFFFF;stop-opacity:1;"/>
<stop offset="0.546875" style="stop-color:#FFFFFF;stop-opacity:1;"/>
<stop offset="0.5625" style="stop-color:#FFFFFF;stop-opacity:1;"/>
<stop offset="0.56608" style="stop-color:#FFFFFF;stop-opacity:1;"/>
<stop offset="0.578125" style="stop-color:#FFFFFF;stop-opacity:1;"/>
<stop offset="0.59375" style="stop-color:#FFFFFF;stop-opacity:1;"/>
<stop offset="0.609375" style="stop-color:#FFFFFF;stop-opacity:1;"/>
<stop offset="0.625" style="stop-color:#FFFFFF;stop-opacity:1;"/>
<stop offset="0.640625" style="stop-color:#FFFFFF;stop-opacity:1;"/>
<stop offset="0.65625" style="stop-color:#FFFFFF;stop-opacity:1;"/>
<stop offset="0.671875" style="stop-color:#FFFFFF;stop-opacity:1;"/>
<stop offset="0.6875" style="stop-color:#FFFFFF;stop-opacity:1;"/>
<stop offset="0.703125" style="stop-color:#FFFFFF;stop-opacity:1;"/>
<stop offset="0.71875" style="stop-color:#FFFFFF;stop-opacity:1;"/>
<stop offset="0.734375" style="stop-color:#FFFFFF;stop-opacity:1;"/>
<stop offset="0.75" style="stop-color:#FFFFFF;stop-opacity:1;"/>
<stop offset="0.765625" style="stop-color:#FFFFFF;stop-opacity:1;"/>
<stop offset="0.78125" style="stop-color:#FFFFFF;stop-opacity:1;"/>
<stop offset="0.796875" style="stop-color:#FFFFFF;stop-opacity:1;"/>
<stop offset="0.8125" style="stop-color:#FFFFFF;stop-opacity:1;"/>
<stop offset="0.828125" style="stop-color:#FFFFFF;stop-opacity:1;"/>
<stop offset="0.84375" style="stop-color:#FFFFFF;stop-opacity:1;"/>
<stop offset="0.859375" style="stop-color:#FFFFFF;stop-opacity:1;"/>
<stop offset="0.875" style="stop-color:#FFFFFF;stop-opacity:1;"/>
<stop offset="0.890625" style="stop-color:#FFFFFF;stop-opacity:1;"/>
<stop offset="0.90625" style="stop-color:#FFFFFF;stop-opacity:1;"/>
<stop offset="0.921875" style="stop-color:#FFFFFF;stop-opacity:1;"/>
<stop offset="0.9375" style="stop-color:#FFFFFF;stop-opacity:1;"/>
<stop offset="0.953125" style="stop-color:#FFFFFF;stop-opacity:1;"/>
<stop offset="0.96875" style="stop-color:#FFFFFF;stop-opacity:1;"/>
<stop offset="1" style="stop-color:#FFFFFF;stop-opacity:1;"/>
</linearGradient>
</defs>
<g id="surface1">
<g clip-path="url(#clip1)" clip-rule="nonzero">


</g>
<g clip-path="url(#clip2)" clip-rule="nonzero">
<g clip-path="url(#clip3)" clip-rule="evenodd">
<g clip-path="url(#clip4)" clip-rule="nonzero">
<path style=" stroke:none;fill-rule:nonzero;fill:url(#linear0);" d="M 67.933594 11.527344 L 67.933594 195.617188 L 229.375 195.617188 L 229.375 11.527344 Z M 67.933594 11.527344 "/>
</g>
</g>
</g>
<path style=" stroke:none;fill-rule:evenodd;fill:#FFFFFF;fill-opacity:1;" d="M 219.023438 219.167969 C 216.46875 218.152344 215.695312 214.921875 217.472656 212.667969 C 218.644531 211.175781 221.136719 210.765625 223.046875 211.738281 C 225.929688 213.210938 225.921875 217.441406 223.03125 218.976562 C 222.023438 219.507812 220.117188 219.601562 219.023438 219.167969 Z M 192.078125 172.277344 C 190.847656 171.875 189.816406 171.230469 188.972656 170.335938 C 187.566406 168.835938 187.171875 167.796875 187.160156 165.546875 C 187.15625 163.710938 187.238281 163.378906 188.015625 162.128906 C 188.75 160.941406 188.832031 160.65625 188.570312 160.152344 C 188.398438 159.832031 186.3125 156.511719 183.941406 152.769531 C 181.566406 149.03125 178.355469 143.925781 176.808594 141.429688 C 173.753906 136.507812 173.738281 136.453125 175.335938 135.484375 C 176.03125 135.0625 176.09375 135.070312 176.566406 135.570312 C 176.84375 135.855469 180.101562 140.957031 183.8125 146.902344 C 187.527344 152.84375 190.8125 157.976562 191.109375 158.308594 C 192.25 159.585938 192.285156 159.164062 192.410156 143.242188 C 192.503906 131.390625 192.601562 128.15625 192.878906 127.828125 C 193.332031 127.28125 193.449219 127.425781 194.523438 129.824219 L 195.414062 131.824219 L 195.546875 145.273438 L 195.683594 158.714844 L 197.285156 159.683594 C 198.472656 160.402344 199.113281 161.027344 199.773438 162.113281 C 200.621094 163.511719 200.652344 163.667969 200.554688 165.769531 C 200.449219 167.898438 200.414062 168 199.234375 169.503906 C 198.574219 170.351562 197.519531 171.328125 196.910156 171.671875 C 195.707031 172.347656 193.234375 172.65625 192.078125 172.277344 Z M 80.234375 153.460938 C 76.820312 152.058594 74.878906 150.34375 73.59375 147.582031 C 71.136719 142.292969 73.597656 134.503906 80.53125 125.625 L 82.875 122.628906 L 82.476562 121.089844 C 81.972656 119.136719 82.191406 117.589844 83.242188 115.746094 C 84.964844 112.730469 87.542969 111.828125 91.5 112.855469 C 92.0625 112.996094 92.476562 112.742188 94.101562 111.265625 C 95.164062 110.292969 96.035156 109.582031 96.035156 109.671875 C 96.035156 109.765625 96.628906 109.246094 97.355469 108.515625 C 98.515625 107.367188 102.566406 104.042969 107.902344 99.875 C 108.777344 99.1875 109.597656 98.726562 109.71875 98.847656 C 109.929688 99.054688 108.765625 102.292969 107.828125 104.085938 C 107.578125 104.574219 105.632812 106.433594 103.507812 108.226562 C 101.378906 110.019531 99.152344 111.949219 98.558594 112.515625 C 97.964844 113.085938 97.363281 113.550781 97.214844 113.550781 C 97.070312 113.550781 96.507812 114.074219 95.976562 114.714844 C 95.015625 115.863281 95.007812 115.890625 95.375 116.914062 C 96.203125 119.25 95.722656 121.722656 94.0625 123.609375 C 92.179688 125.753906 89.292969 126.625 87.105469 125.707031 L 86.1875 125.328125 L 84.46875 127.644531 C 79.289062 134.605469 76.644531 141.472656 77.375 146.046875 C 77.769531 148.523438 78.570312 150.011719 80.589844 152.015625 C 82.855469 154.265625 82.792969 154.515625 80.234375 153.460938 Z M 119.449219 148.960938 C 119.109375 148.691406 117.3125 141.457031 116.996094 139.085938 C 116.953125 138.761719 116.828125 138.289062 116.722656 138.039062 C 116.617188 137.792969 116.601562 137.472656 116.691406 137.328125 C 116.78125 137.183594 116.722656 136.984375 116.5625 136.886719 C 116.40625 136.789062 116.34375 136.527344 116.429688 136.300781 C 116.515625 136.078125 116.449219 135.726562 116.277344 135.523438 C 116.109375 135.316406 116.046875 135.074219 116.140625 134.980469 C 116.234375 134.886719 116.175781 134.652344 116.011719 134.453125 C 115.851562 134.257812 115.785156 133.925781 115.867188 133.703125 C 115.953125 133.488281 115.898438 133.234375 115.75 133.140625 C 115.597656 133.050781 115.539062 132.800781 115.621094 132.589844 C 115.703125 132.378906 115.648438 132 115.503906 131.75 C 115.355469 131.5 114.773438 129.039062 114.199219 126.277344 C 113.203125 121.429688 112.742188 120.222656 111.910156 120.222656 C 111.734375 120.222656 110.855469 119.851562 109.953125 119.398438 C 108.542969 118.699219 108.167969 118.34375 107.332031 116.929688 C 106.464844 115.472656 106.351562 115.085938 106.359375 113.515625 C 106.363281 111.460938 107.011719 109.867188 108.371094 108.554688 C 109.640625 107.332031 110.488281 106.976562 112.320312 106.910156 C 114.308594 106.839844 115.53125 107.210938 117.148438 108.382812 C 117.824219 108.882812 118.5625 109.28125 118.78125 109.28125 C 118.996094 109.28125 122.28125 108.011719 126.078125 106.464844 C 129.878906 104.910156 135.445312 102.671875 138.453125 101.484375 C 141.464844 100.296875 144.074219 99.210938 144.257812 99.070312 C 144.441406 98.925781 144.59375 98.316406 144.597656 97.710938 C 144.605469 95.570312 146.125 93.207031 148.152344 92.167969 C 149.660156 91.386719 152.542969 91.214844 154.085938 91.800781 C 155.589844 92.378906 154.746094 92.988281 162.421875 85.746094 L 168.289062 80.210938 L 167.914062 78.964844 C 167.324219 77.011719 167.445312 76.101562 168.585938 73.859375 C 169.511719 72.050781 169.792969 71.722656 170.917969 71.160156 C 172.273438 70.480469 175.605469 70.070312 176.527344 70.46875 C 176.792969 70.585938 177.140625 70.707031 177.304688 70.742188 C 178.457031 70.992188 180.214844 73.03125 180.835938 74.84375 C 181.222656 75.996094 181.226562 77.726562 180.84375 78.894531 C 180.4375 80.105469 178.628906 81.964844 177.09375 82.753906 C 176.40625 83.105469 175.777344 83.503906 175.695312 83.636719 C 175.402344 84.113281 174.554688 107.34375 174.804688 108.003906 C 174.890625 108.238281 176.886719 109.464844 179.230469 110.734375 C 181.578125 112.007812 183.558594 113.203125 183.632812 113.402344 C 183.710938 113.605469 183.335938 114.109375 182.769531 114.566406 L 181.769531 115.367188 L 178.46875 113.660156 C 175.714844 112.238281 175.097656 112.007812 174.804688 112.304688 C 174.554688 112.554688 174.402344 113.898438 174.285156 116.828125 L 174.125 121.003906 L 172.777344 121.945312 C 171.988281 122.496094 171.332031 122.789062 171.191406 122.652344 C 171.054688 122.511719 171.070312 119.941406 171.242188 116.453125 C 171.511719 110.917969 171.496094 110.457031 171.066406 110.046875 C 170.808594 109.800781 167.660156 108.070312 164.066406 106.207031 C 160.476562 104.339844 157.421875 102.714844 157.289062 102.597656 C 157.160156 102.476562 156.5625 102.714844 155.957031 103.121094 C 153.929688 104.507812 153.097656 104.816406 151.390625 104.808594 C 149.441406 104.792969 148.371094 104.378906 146.609375 102.953125 L 145.292969 101.890625 L 142.742188 102.933594 C 141.335938 103.511719 135.746094 105.789062 130.320312 107.992188 C 124.890625 110.199219 120.296875 112.125 120.113281 112.277344 C 119.929688 112.425781 119.78125 112.996094 119.78125 113.542969 C 119.78125 115.539062 118.511719 117.847656 116.769531 119.03125 L 115.867188 119.648438 L 117.414062 126.628906 C 118.265625 130.46875 118.949219 133.6875 118.925781 133.785156 C 118.910156 133.882812 118.964844 134.140625 119.054688 134.359375 C 119.273438 134.898438 121.730469 146.355469 121.78125 147.046875 C 121.796875 147.347656 121.898438 147.726562 121.996094 147.886719 C 122.210938 148.234375 121.671875 148.726562 120.960938 148.835938 C 120.675781 148.878906 120.3125 149 120.15625 149.101562 C 119.992188 149.203125 119.671875 149.140625 119.449219 148.960938 Z M 171.199219 106.015625 C 171.578125 105.539062 171.796875 102.882812 171.953125 96.824219 C 172.03125 93.921875 172.191406 89.804688 172.316406 87.671875 C 172.53125 83.984375 172.511719 83.785156 172.003906 83.335938 C 170.691406 82.179688 170.46875 82.289062 166.265625 86.226562 C 164.101562 88.25 161.230469 90.980469 159.886719 92.296875 C 157.585938 94.546875 157.457031 94.730469 157.722656 95.382812 C 157.882812 95.765625 158.082031 96.917969 158.167969 97.941406 L 158.328125 99.8125 L 164.46875 103.046875 C 167.84375 104.828125 170.679688 106.296875 170.773438 106.316406 C 170.863281 106.335938 171.054688 106.199219 171.199219 106.015625 Z M 171.199219 106.015625 "/>
<path style=" stroke:none;fill-rule:evenodd;fill:#FFFFFF;fill-opacity:1;" d="M 81.628906 303.601562 C 78.402344 303.167969 75.066406 301.941406 72.710938 300.316406 C 70.929688 299.089844 70.808594 298.722656 71.648438 297.042969 C 72.742188 294.867188 72.703125 294.882812 74.148438 295.921875 C 75.875 297.164062 79.015625 298.582031 80.898438 298.960938 C 82.855469 299.363281 86.824219 299.367188 88.335938 298.96875 C 91.90625 298.027344 93.847656 295.375 93.085938 292.480469 C 92.449219 290.070312 90.382812 288.871094 84.007812 287.210938 C 75.039062 284.871094 72.386719 282.863281 71.648438 277.839844 C 71.410156 276.246094 71.886719 273.617188 72.695312 272.015625 C 73.996094 269.453125 77.207031 267.304688 80.921875 266.511719 C 83.515625 265.957031 88.507812 266.167969 91.191406 266.941406 C 93.550781 267.621094 96.175781 268.90625 96.398438 269.492188 C 96.558594 269.910156 95.160156 273.359375 94.832031 273.359375 C 94.738281 273.359375 94.164062 273.066406 93.550781 272.710938 C 90.511719 270.941406 85.601562 270.046875 82.386719 270.679688 C 80.222656 271.105469 79.023438 271.730469 77.824219 273.058594 C 76.296875 274.746094 76.128906 277.335938 77.4375 279.042969 C 78.472656 280.402344 80.363281 281.242188 85.652344 282.695312 C 93.164062 284.765625 95.789062 286.25 97.289062 289.308594 C 97.949219 290.65625 98.035156 291.132812 98.035156 293.371094 C 98.035156 295.59375 97.941406 296.089844 97.300781 297.40625 C 96.023438 300.003906 93.359375 302.050781 89.902344 303.085938 C 88.425781 303.527344 83.410156 303.839844 81.628906 303.601562 Z M 111.835938 303.476562 C 108.898438 302.984375 106.695312 301.277344 105.726562 298.722656 C 105.328125 297.679688 105.25 296.257812 105.167969 288.972656 C 105.105469 283.707031 104.964844 280.316406 104.800781 280.113281 C 104.648438 279.929688 103.738281 279.753906 102.746094 279.707031 L 100.972656 279.628906 L 100.804688 277.761719 C 100.710938 276.734375 100.691406 275.804688 100.753906 275.695312 C 100.816406 275.585938 101.675781 275.492188 102.667969 275.492188 C 103.707031 275.492188 104.601562 275.359375 104.789062 275.171875 C 104.992188 274.96875 105.105469 273.925781 105.105469 272.289062 C 105.105469 270.65625 105.21875 269.617188 105.425781 269.410156 C 105.609375 269.226562 106.492188 269.089844 107.507812 269.089844 C 108.523438 269.089844 109.402344 269.226562 109.589844 269.410156 C 109.796875 269.617188 109.910156 270.660156 109.910156 272.3125 C 109.910156 274.21875 110.007812 274.976562 110.285156 275.207031 C 110.527344 275.410156 111.925781 275.542969 114.089844 275.578125 L 117.511719 275.628906 L 117.511719 279.628906 L 114.058594 279.707031 C 112.074219 279.75 110.460938 279.902344 110.257812 280.066406 C 109.980469 280.296875 109.910156 282.015625 109.910156 288 C 109.910156 292.203125 110.023438 296.046875 110.167969 296.546875 C 110.476562 297.621094 111.375 298.660156 112.3125 299.019531 C 113.433594 299.453125 115.722656 299.320312 116.859375 298.757812 C 118.0625 298.164062 118.136719 298.210938 118.96875 300.15625 C 119.492188 301.363281 119.496094 301.484375 119.082031 301.9375 C 118.019531 303.113281 114.34375 303.894531 111.835938 303.476562 Z M 133.921875 303.5 C 130.179688 302.976562 127.472656 301.054688 125.796875 297.714844 C 124.667969 295.46875 124.566406 294.324219 124.644531 284.699219 L 124.714844 275.628906 L 129.25 275.628906 L 129.386719 284.699219 C 129.515625 293.542969 129.535156 293.804688 130.160156 295.179688 C 132.1875 299.683594 138.378906 300.664062 142.28125 297.097656 C 144.691406 294.894531 144.695312 294.878906 144.855469 284.566406 L 144.992188 275.628906 L 146.949219 275.546875 C 148.164062 275.5 149.054688 275.585938 149.28125 275.78125 C 149.84375 276.246094 149.84375 302.488281 149.28125 302.953125 C 149.054688 303.144531 148.195312 303.234375 147.082031 303.1875 L 145.257812 303.105469 L 145.175781 301.78125 C 145.042969 299.6875 144.734375 299.5625 143.210938 300.988281 C 142.496094 301.660156 141.386719 302.441406 140.75 302.71875 C 139.753906 303.164062 136.441406 303.820312 135.652344 303.734375 C 135.503906 303.71875 134.726562 303.613281 133.921875 303.5 Z M 167.523438 303.492188 C 164.355469 303.023438 161.011719 301.121094 159.078125 298.675781 C 156.34375 295.214844 155.386719 289.5 156.757812 284.804688 C 158.4375 279.042969 163.53125 275.226562 169.539062 275.226562 C 172.828125 275.226562 175.230469 276.09375 177.4375 278.09375 C 178.222656 278.796875 178.464844 278.894531 178.703125 278.605469 C 178.898438 278.375 179.023438 275.9375 179.070312 271.46875 L 179.140625 264.6875 L 183.675781 264.6875 L 183.675781 303.105469 L 181.71875 303.1875 C 179.375 303.28125 179.007812 303.054688 179.007812 301.503906 C 179.007812 299.886719 178.492188 299.570312 177.519531 300.601562 C 175.3125 302.917969 171.378906 304.058594 167.523438 303.492188 Z M 213.371094 302.992188 C 209.261719 301.679688 206.007812 298.542969 204.601562 294.546875 C 203.8125 292.300781 203.617188 288.175781 204.191406 285.898438 C 204.898438 283.113281 205.878906 281.398438 207.933594 279.339844 C 212.253906 275.007812 218.441406 273.972656 224.09375 276.632812 C 226.269531 277.652344 229.046875 280.363281 230.042969 282.429688 C 232.136719 286.78125 232.082031 292.558594 229.914062 296.628906 C 228.3125 299.625 224.980469 302.234375 221.59375 303.136719 C 219.605469 303.667969 215.238281 303.589844 213.371094 302.992188 Z M 192.476562 302.917969 C 192.398438 302.730469 192.371094 296.511719 192.410156 289.097656 L 192.480469 275.628906 L 197.015625 275.628906 L 197.015625 303.105469 L 194.808594 303.183594 C 193.199219 303.238281 192.570312 303.167969 192.476562 302.917969 Z M 173.75 298.5 C 175.992188 297.511719 177.765625 295.488281 178.5 293.066406 C 179.296875 290.460938 179.148438 286.945312 178.15625 284.792969 C 177.273438 282.882812 175.640625 281.238281 173.710938 280.335938 C 171.714844 279.398438 168.347656 279.34375 166.421875 280.214844 C 163.546875 281.519531 161.65625 284.175781 161.125 287.671875 C 160.613281 291.046875 161.484375 294.183594 163.566406 296.441406 C 166.21875 299.320312 170.09375 300.105469 173.75 298.5 Z M 221.921875 298.300781 C 225.21875 296.5 227.015625 292.757812 226.683594 288.378906 C 226.417969 284.863281 224.445312 281.832031 221.46875 280.367188 C 220.179688 279.738281 219.632812 279.628906 217.691406 279.632812 C 215.753906 279.632812 215.203125 279.738281 213.90625 280.378906 C 211.996094 281.3125 210.171875 283.304688 209.390625 285.3125 C 208.609375 287.3125 208.535156 291 209.234375 293.007812 C 209.910156 294.949219 211.070312 296.589844 212.476562 297.59375 C 214.363281 298.957031 215.390625 299.242188 218.09375 299.15625 C 220.164062 299.089844 220.691406 298.972656 221.921875 298.300781 Z M 193.6875 270.070312 C 191.484375 269.320312 190.890625 266.421875 192.589844 264.726562 C 193.304688 264.007812 193.613281 263.886719 194.777344 263.886719 C 195.992188 263.886719 196.214844 263.988281 197.039062 264.886719 C 197.789062 265.707031 197.949219 266.089844 197.949219 267.066406 C 197.949219 268.378906 197.066406 269.722656 196.007812 270.03125 C 194.796875 270.378906 194.59375 270.382812 193.6875 270.070312 Z M 100.90625 253.761719 C 96.152344 252.683594 91.84375 248.644531 90.363281 243.890625 C 89.582031 241.367188 89.53125 236.582031 90.261719 234.40625 C 91.5625 230.539062 94.578125 227.070312 98.066406 225.417969 C 99.117188 224.914062 100.261719 224.472656 100.617188 224.4375 C 100.972656 224.398438 101.386719 224.289062 101.542969 224.191406 C 101.695312 224.101562 102.769531 223.949219 103.929688 223.859375 C 111.707031 223.261719 118.699219 228.113281 120.191406 235.140625 C 121.910156 243.253906 118.199219 250.632812 111.078125 253.269531 C 109.558594 253.832031 108.667969 253.964844 105.90625 254.046875 C 103.664062 254.109375 102.027344 254.015625 100.90625 253.761719 Z M 134.921875 253.734375 C 130.683594 252.707031 128.089844 249.832031 127.09375 245.054688 C 126.792969 243.613281 126.722656 241.179688 126.78125 233.808594 L 126.847656 224.402344 L 133.253906 224.402344 L 133.398438 233.339844 C 133.527344 241.027344 133.613281 242.464844 134.027344 243.613281 C 134.734375 245.578125 135.671875 246.65625 137.320312 247.414062 C 138.570312 247.984375 139.054688 248.0625 140.683594 247.960938 C 141.746094 247.890625 143.003906 247.621094 143.523438 247.359375 C 145.03125 246.597656 146.417969 245.074219 147.050781 243.488281 C 147.609375 242.09375 147.648438 241.539062 147.738281 233.476562 C 147.800781 228.066406 147.9375 224.820312 148.113281 224.605469 C 148.464844 224.183594 153.457031 224.144531 154.238281 224.558594 C 154.765625 224.84375 154.773438 225.03125 154.6875 238.984375 C 154.628906 249.316406 154.519531 253.1875 154.296875 253.378906 C 154.125 253.519531 152.683594 253.601562 151.089844 253.558594 L 148.191406 253.480469 L 148.109375 252.417969 C 147.972656 250.777344 147.621094 250.542969 146.613281 251.429688 C 145.242188 252.636719 143.996094 253.304688 142.316406 253.738281 C 140.40625 254.238281 136.996094 254.238281 134.921875 253.734375 Z M 237.808594 253.789062 C 233.304688 252.644531 230.484375 248.976562 230.828125 244.695312 C 231.179688 240.34375 234.019531 237.546875 238.996094 236.660156 C 240.140625 236.457031 242.925781 236.289062 245.339844 236.285156 C 248.625 236.277344 249.710938 236.191406 249.941406 235.914062 C 250.390625 235.378906 249.84375 232.902344 249.046875 231.855469 C 247.007812 229.191406 241.390625 228.882812 236.792969 231.191406 C 235.328125 231.929688 234.699219 232.121094 234.359375 231.933594 C 233.671875 231.550781 232.09375 227.976562 232.378906 227.449219 C 232.738281 226.777344 236.027344 225.164062 238.382812 224.5 C 241.167969 223.722656 246.347656 223.660156 248.761719 224.375 C 253.703125 225.847656 256.070312 228.464844 256.90625 233.386719 C 257.085938 234.4375 257.164062 238.550781 257.121094 244.28125 L 257.042969 253.480469 L 250.90625 253.480469 L 250.820312 252.550781 C 250.671875 251 250.316406 250.828125 249.21875 251.789062 C 248.695312 252.25 247.601562 252.933594 246.785156 253.308594 C 245.519531 253.890625 244.863281 254 242.238281 254.0625 C 240.351562 254.109375 238.644531 254.003906 237.808594 253.789062 Z M 8.183594 253.414062 C 8.125 253.304688 9.210938 250.636719 10.605469 247.480469 C 11.996094 244.328125 15.75 235.6875 18.941406 228.269531 L 24.753906 214.800781 L 28.332031 214.722656 C 31.476562 214.660156 31.960938 214.707031 32.332031 215.125 C 32.566406 215.382812 34.558594 219.738281 36.761719 224.804688 C 38.964844 229.863281 42.683594 238.328125 45.023438 243.613281 C 47.371094 248.894531 49.234375 253.304688 49.167969 253.414062 C 48.957031 253.769531 42.289062 253.652344 41.828125 253.285156 C 41.605469 253.101562 40.71875 251.269531 39.867188 249.214844 C 39.019531 247.160156 38.203125 245.332031 38.0625 245.148438 C 37.867188 244.890625 35.640625 244.8125 28.539062 244.8125 C 21.441406 244.8125 19.199219 244.890625 19 245.148438 C 18.855469 245.332031 18.109375 247.039062 17.34375 248.949219 C 15.292969 254.050781 15.8125 253.617188 11.738281 253.617188 C 9.84375 253.617188 8.246094 253.523438 8.183594 253.414062 Z M 54.070312 253.445312 C 53.964844 253.347656 53.882812 244.710938 53.882812 234.265625 C 53.882812 217.945312 53.9375 215.214844 54.273438 214.941406 C 54.5625 214.699219 56.964844 214.648438 64.078125 214.730469 C 72.703125 214.835938 73.667969 214.890625 75.601562 215.421875 C 83.21875 217.511719 87.125 223.898438 85.496094 231.601562 C 84.4375 236.59375 81.113281 239.921875 75.628906 241.496094 C 74.394531 241.84375 72.597656 241.976562 67.835938 242.070312 C 63.378906 242.160156 61.566406 242.285156 61.371094 242.523438 C 61.210938 242.714844 61.066406 245.046875 61.023438 248.171875 L 60.949219 253.480469 L 57.605469 253.558594 C 55.757812 253.597656 54.171875 253.546875 54.070312 253.445312 Z M 162.921875 253.445312 C 162.816406 253.347656 162.734375 246.886719 162.734375 239.085938 C 162.734375 228.414062 162.8125 224.832031 163.054688 224.589844 C 163.261719 224.382812 164.332031 224.269531 166.066406 224.269531 C 169.039062 224.269531 169.40625 224.429688 169.40625 225.734375 C 169.40625 227.117188 169.886719 227.304688 170.96875 226.355469 C 173.199219 224.390625 177.039062 223.421875 180.375 223.972656 C 182.875 224.382812 184.382812 225.144531 186.320312 226.957031 L 187.949219 228.480469 L 189.464844 227.066406 C 191.359375 225.304688 193.335938 224.355469 195.929688 223.972656 C 200.054688 223.355469 203.941406 224.601562 206.445312 227.347656 C 209.09375 230.246094 209.472656 232.476562 209.367188 244.679688 L 209.289062 253.480469 L 206.144531 253.558594 C 203.78125 253.613281 202.976562 253.550781 202.886719 253.292969 C 202.820312 253.105469 202.714844 249.050781 202.65625 244.28125 C 202.570312 237.152344 202.472656 235.359375 202.105469 234.199219 C 200.386719 228.757812 193.117188 228.339844 190.566406 233.539062 L 189.816406 235.074219 L 189.679688 244.28125 L 189.546875 253.480469 L 182.875 253.480469 L 182.742188 244.28125 C 182.613281 235.382812 182.585938 235.03125 181.996094 233.742188 C 180.667969 230.855469 178.269531 229.527344 175.472656 230.128906 C 172.75 230.710938 171.070312 232.238281 170.144531 234.988281 C 169.960938 235.53125 169.785156 239.261719 169.691406 244.679688 L 169.539062 253.480469 L 166.320312 253.558594 C 164.554688 253.597656 163.023438 253.550781 162.921875 253.445312 Z M 217.550781 253.292969 C 217.480469 253.105469 217.453125 246.527344 217.492188 238.675781 L 217.5625 224.402344 L 220.652344 224.328125 C 223.046875 224.269531 223.820312 224.335938 224.054688 224.625 C 224.285156 224.898438 224.347656 228.761719 224.296875 239.242188 L 224.226562 253.480469 L 220.957031 253.558594 C 218.484375 253.613281 217.648438 253.550781 217.550781 253.292969 Z M 265.367188 253.445312 C 265.265625 253.347656 265.179688 246.871094 265.179688 239.066406 C 265.179688 228.027344 265.257812 224.808594 265.515625 224.597656 C 265.96875 224.230469 270.648438 224.179688 271.3125 224.535156 C 271.683594 224.730469 271.851562 225.09375 271.851562 225.695312 C 271.851562 227.183594 272.304688 227.308594 273.789062 226.21875 C 277.335938 223.613281 282.886719 223.0625 286.925781 224.917969 C 290.0625 226.355469 292.363281 229.628906 292.929688 233.472656 C 293.09375 234.566406 293.179688 239.097656 293.136719 244.414062 L 293.0625 253.480469 L 286.390625 253.480469 L 286.257812 244.148438 C 286.140625 235.902344 286.066406 234.683594 285.644531 233.742188 C 284.535156 231.28125 282.546875 230.042969 279.683594 230.03125 C 277.128906 230.015625 275.046875 231.03125 273.792969 232.902344 C 272.363281 235.027344 272.300781 235.480469 272.140625 244.8125 L 271.980469 253.480469 L 268.769531 253.558594 C 267 253.597656 265.46875 253.550781 265.367188 253.445312 Z M 245.855469 248.6875 C 248.542969 247.890625 250.242188 245.652344 250.242188 242.914062 C 250.242188 242.109375 250.097656 241.308594 249.921875 241.128906 C 249.5 240.714844 242.398438 240.695312 240.753906 241.109375 C 239.949219 241.3125 239.28125 241.734375 238.636719 242.445312 C 237.808594 243.363281 237.703125 243.644531 237.703125 244.953125 C 237.703125 246.238281 237.808594 246.539062 238.570312 247.363281 C 240.078125 249 243.019531 249.535156 245.855469 248.6875 Z M 108.726562 247.5 C 112.039062 246.035156 113.835938 242.664062 113.589844 238.382812 C 113.367188 234.589844 111.09375 231.285156 107.988281 230.253906 C 106.160156 229.648438 103 229.828125 101.445312 230.628906 C 98.679688 232.050781 97.074219 234.753906 96.886719 238.300781 C 96.570312 244.304688 100.355469 248.503906 105.789062 248.179688 C 106.675781 248.128906 107.996094 247.824219 108.726562 247.5 Z M 34.898438 238.59375 C 35.113281 238.332031 34.722656 237.101562 33.347656 233.726562 C 30.792969 227.425781 29.179688 223.742188 28.832031 223.390625 C 28.304688 222.863281 27.847656 223.683594 25.636719 229.074219 C 22.023438 237.894531 21.894531 238.246094 22.191406 238.609375 C 22.597656 239.101562 34.488281 239.089844 34.898438 238.59375 Z M 74.292969 235.261719 C 76.960938 234.03125 78.171875 232.214844 78.371094 229.140625 C 78.550781 226.378906 78.097656 225 76.441406 223.304688 C 74.492188 221.300781 73.5 221.070312 66.960938 221.070312 C 63.246094 221.070312 61.632812 221.164062 61.40625 221.390625 C 60.9375 221.855469 60.949219 235.234375 61.417969 235.703125 C 61.671875 235.960938 63.105469 236.023438 67.355469 235.957031 C 72.542969 235.878906 73.058594 235.828125 74.292969 235.261719 Z M 74.292969 235.261719 "/>
</g>
</svg>
